<?xml version="1.0" encoding="utf-8"?>
<!-- Generator: Adobe Illustrator 23.0.0, SVG Export Plug-In . SVG Version: 6.00 Build 0)  -->
<svg version="1.1" id="Layer_1" xmlns="http://www.w3.org/2000/svg" xmlns:xlink="http://www.w3.org/1999/xlink" x="0px" y="0px"
	 viewBox="0 0 302.3 302" style="enable-background:new 0 0 302.3 302;" xml:space="preserve">
<path d="M70,45.8C78,18.5,137.7,3.8,183.4,22.2c41,16.6,76.3,62.1,67,91.7c-10,31.9-68.2,34.2-67,48.8c1.2,15.4,65.6,6,93.4,45.9
	c15.7,22.4,18.3,58.2,2.9,76.2c-9.8,11.4-30.4,11.7-71.3,11.8c-37,0.1-55.6,0-62-10.4c-12.6-20.1,21-55,10-68.1
	c-9.8-11.5-39,12.7-77,5.9c-6.3-1.1-36.4-6.5-54.2-32.5c-19-27.8-19.5-72.3-1.4-85.1c23.6-16.6,72,25.2,79.9,14.8
	C111.2,111.1,61.5,74.5,70,45.8z"/>
</svg>
